<svg width="200" height="200" viewBox="0 0 200 200" fill="none" xmlns="http://www.w3.org/2000/svg">
<rect width="200" height="200" fill="#6181B6"/>
<g filter="url(#filter0_d_1303_864)">
<path d="M60.3875 89.2143C61.8233 89.0338 63.2805 89.1396 64.6752 89.5256C66.0698 89.9117 67.3741 90.5702 68.5127 91.4633C69.2473 92.5949 69.7157 93.8784 69.8827 95.2173C70.0496 96.5561 69.9108 97.9153 69.4765 99.1927C69.0956 102.337 67.5748 105.233 65.2021 107.332C62.3408 109.175 58.9584 110.039 55.5636 109.795H49.0449L53.0493 89.2562L60.3875 89.2143ZM34.3125 130.59H45.0219L47.5595 117.552H56.7184C60.0926 117.638 63.4598 117.203 66.7014 116.263C69.3636 115.384 71.7971 113.924 73.8254 111.988C77.3335 108.834 79.6978 104.606 80.5491 99.9656C81.221 97.6561 81.3393 95.2207 80.8944 92.8568C80.4494 90.493 79.4538 88.2673 77.9881 86.3601C76.2211 84.609 74.0932 83.2646 71.7529 82.421C69.4126 81.5774 66.9163 81.2548 64.4384 81.4757H43.8904L34.3125 130.59ZM88.4042 68.4102H99.0344L96.4595 81.4477H105.916C110.261 80.9928 114.626 82.0969 118.232 84.5627C119.425 85.9191 120.241 87.5652 120.597 89.3362C120.953 91.1071 120.838 92.9406 120.262 94.6528L115.82 117.51H105.064L109.292 95.7797C109.586 94.9505 109.691 94.0661 109.599 93.1912C109.508 92.3162 109.221 91.4729 108.761 90.723C107.22 89.6171 105.315 89.1408 103.435 89.3913H94.9462L89.4751 117.534H78.8216L88.4042 68.4102ZM143.916 89.2143C145.352 89.0338 146.809 89.1396 148.204 89.5256C149.598 89.9117 150.903 90.5702 152.041 91.4633C152.776 92.5949 153.244 93.8784 153.411 95.2173C153.578 96.5561 153.439 97.9153 153.005 99.1927C152.624 102.337 151.103 105.233 148.731 107.332C145.864 109.179 142.474 110.043 139.073 109.795H132.559L136.554 89.233L143.916 89.2143ZM117.841 130.59H128.55L131.088 117.552H140.252C143.632 117.64 147.006 117.205 150.253 116.263C152.915 115.384 155.349 113.924 157.377 111.988C160.877 108.83 163.233 104.603 164.078 99.9656C164.749 97.6561 164.868 95.2207 164.423 92.8568C163.978 90.493 162.982 88.2673 161.517 86.3601C159.749 84.6121 157.621 83.2707 155.282 82.4296C152.942 81.5884 150.448 81.2676 147.972 81.4896H127.391L117.841 130.59Z" fill="white"/>
</g>
<defs>
<filter id="filter0_d_1303_864" x="34.3125" y="68.4102" width="132.375" height="64.1796" filterUnits="userSpaceOnUse" color-interpolation-filters="sRGB">
<feFlood flood-opacity="0" result="BackgroundImageFix"/>
<feColorMatrix in="SourceAlpha" type="matrix" values="0 0 0 0 0 0 0 0 0 0 0 0 0 0 0 0 0 0 127 0" result="hardAlpha"/>
<feOffset dx="2" dy="2"/>
<feComposite in2="hardAlpha" operator="out"/>
<feColorMatrix type="matrix" values="0 0 0 0 0 0 0 0 0 0 0 0 0 0 0 0 0 0 0.25 0"/>
<feBlend mode="normal" in2="BackgroundImageFix" result="effect1_dropShadow_1303_864"/>
<feBlend mode="normal" in="SourceGraphic" in2="effect1_dropShadow_1303_864" result="shape"/>
</filter>
</defs>
</svg>
